<svg  fill="none" xmlns="http://www.w3.org/2000/svg">
<path d="M75.3012 26.3926C71.5789 26.3926 68.5509 29.3821 68.5509 33.0565C68.5509 36.7309 71.5789 39.7204 75.3012 39.7204C79.0235 39.7204 82.0515 36.7309 82.0515 33.0565C82.0515 29.3821 79.0235 26.3926 75.3012 26.3926ZM75.3012 37.4991C72.8199 37.4991 70.8009 35.5062 70.8009 33.0565C70.8009 30.6067 72.8197 28.6138 75.3012 28.6138C77.7827 28.6138 79.8015 30.6067 79.8015 33.0565C79.8015 35.5062 77.7825 37.4991 75.3012 37.4991Z" fill="url(#paint0_linear_1308_2873)"/>
<path d="M86.5518 19.3076H84.3018V39.253H86.5518V19.3076Z" fill="url(#paint1_linear_1308_2873)"/>
<path d="M67.4257 26.3418C65.6981 26.3418 64.1208 26.9865 62.9257 28.044V26.6201C62.9254 26.6199 62.9252 26.6196 62.925 26.6194H60.6764C60.6761 26.6196 60.6759 26.6199 60.6757 26.6201V39.2532H62.9257V33.0057C62.9257 30.556 64.9444 28.563 67.426 28.563C67.426 28.5633 67.426 26.3448 67.4257 26.3418Z" fill="url(#paint2_linear_1308_2873)"/>
<path d="M45.4755 33.0567C45.4755 29.3118 48.3792 26.3936 52.0418 26.3936C55.7045 26.3936 58.373 29.002 58.4253 33.5991H47.8038C48.0133 35.8977 49.8183 37.6279 52.199 37.6279C53.8471 37.6279 55.1814 36.9047 56.0186 36.0785L57.4574 37.6279C56.3327 38.7902 54.4751 39.7199 52.199 39.7199C48.3269 39.7199 45.4755 36.7758 45.4755 33.0567ZM47.9084 31.6622H55.8877C55.5736 29.5445 53.8994 28.4082 51.9112 28.4339C50.0013 28.4339 48.3795 29.6995 47.9084 31.6622Z" fill="url(#paint3_linear_1308_2873)"/>
<path d="M99.7712 26.6702V27.86C98.6147 26.9431 97.1476 26.3926 95.5523 26.3926C91.83 26.3926 88.802 29.3821 88.802 33.0565C88.802 36.7309 91.83 39.7204 95.5523 39.7204C97.1476 39.7204 98.6147 39.1699 99.7712 38.253V39.2537H102.021V34.9571V31.1558V26.6702H99.7712ZM99.7712 34.5877C99.1373 36.2839 97.488 37.4989 95.5523 37.4989C93.071 37.4989 91.052 35.506 91.052 33.0562C91.052 30.6065 93.0708 28.6136 95.5523 28.6136C97.488 28.6136 99.1373 29.8286 99.7712 31.525C99.9499 32.0033 100.052 32.5176 100.052 33.0562C100.052 33.5953 99.9499 34.1096 99.7712 34.5877Z" fill="url(#paint4_linear_1308_2873)"/>
<path d="M40.9753 26.6702V27.86C39.8188 26.9431 38.3517 26.3926 36.7564 26.3926C33.0341 26.3926 30.0061 29.3821 30.0061 33.0565C30.0061 36.7309 33.0341 39.7204 36.7564 39.7204C38.3517 39.7204 39.8188 39.1699 40.9753 38.253V39.2537H43.2253V34.9571V31.1558V26.6702H40.9753ZM40.9753 34.5877C40.3414 36.2839 38.6921 37.4989 36.7564 37.4989C34.2751 37.4989 32.2561 35.506 32.2561 33.0562C32.2561 30.6065 34.2749 28.6136 36.7564 28.6136C38.6921 28.6136 40.3414 29.8286 40.9753 31.525C41.154 32.0033 41.2564 32.5176 41.2564 33.0562C41.2567 33.5953 41.154 34.1096 40.9753 34.5877Z" fill="url(#paint5_linear_1308_2873)"/>
<path d="M105.396 19.3076V31.1554V34.9566V39.2533H107.647V38.2525C108.803 39.1694 110.27 39.7199 111.865 39.7199C115.588 39.7199 118.616 36.7304 118.616 33.056C118.616 29.3814 115.588 26.3921 111.865 26.3921C110.27 26.3921 108.803 26.9426 107.647 27.8595V19.3079H105.396V19.3076ZM107.365 33.056C107.365 32.5172 107.468 32.0029 107.647 31.5248C108.28 29.8284 109.93 28.6133 111.865 28.6133C114.347 28.6133 116.366 30.6063 116.366 33.056C116.366 35.5058 114.347 37.4987 111.865 37.4987C109.93 37.4987 108.28 36.2836 107.647 34.5875C107.468 34.1091 107.365 33.5948 107.365 33.056Z" fill="url(#paint6_linear_1308_2873)"/>
<path d="M33.7508 15.0241L27.2846 3.96755C27.2382 3.88834 27.1357 3.86124 27.0555 3.90704L15.8555 10.2905C15.793 10.3263 15.7606 10.3973 15.7751 10.4672L19.4062 27.9846L18.8746 28.5765C17.9822 29.5698 17.2267 30.1079 15.7902 30.1079C14.1795 30.1079 13.4233 29.2697 12.2258 27.7881C10.8149 26.0426 9.06358 23.8761 4.8613 23.8186C4.76781 23.8174 4.6897 23.8931 4.6897 23.9854V25.7638C4.6897 25.8543 4.76473 25.9269 4.85633 25.9283C8.02993 25.9795 9.2572 27.4979 10.5555 29.1038C11.7352 30.5633 13.0722 32.2174 15.7902 32.2174C18.1368 32.2174 19.4277 31.1402 20.4734 29.9761L24.3306 25.6821L24.3309 25.6818L33.731 15.2169C33.779 15.1634 33.7868 15.0858 33.7508 15.0241Z" fill="url(#paint7_linear_1308_2873)"/>
<defs>
<linearGradient id="paint0_linear_1308_2873" x1="75.3012" y1="26.3926" x2="75.3012" y2="39.7204" gradientUnits="userSpaceOnUse">
<stop stop-color="#FF8800"/>
<stop offset="1" stop-color="#FF6600"/>
</linearGradient>
<linearGradient id="paint1_linear_1308_2873" x1="85.4268" y1="19.3076" x2="85.4268" y2="39.253" gradientUnits="userSpaceOnUse">
<stop stop-color="#FF8800"/>
<stop offset="1" stop-color="#FF6600"/>
</linearGradient>
<linearGradient id="paint2_linear_1308_2873" x1="64.0508" y1="26.3418" x2="64.0508" y2="39.2532" gradientUnits="userSpaceOnUse">
<stop stop-color="#FF8800"/>
<stop offset="1" stop-color="#FF6600"/>
</linearGradient>
<linearGradient id="paint3_linear_1308_2873" x1="51.9504" y1="26.3936" x2="51.9504" y2="39.7199" gradientUnits="userSpaceOnUse">
<stop stop-color="#FF8800"/>
<stop offset="1" stop-color="#FF6600"/>
</linearGradient>
<linearGradient id="paint4_linear_1308_2873" x1="95.4116" y1="26.3926" x2="95.4116" y2="39.7204" gradientUnits="userSpaceOnUse">
<stop stop-color="#FF8800"/>
<stop offset="1" stop-color="#FF6600"/>
</linearGradient>
<linearGradient id="paint5_linear_1308_2873" x1="36.6157" y1="26.3926" x2="36.6157" y2="39.7204" gradientUnits="userSpaceOnUse">
<stop stop-color="#FF8800"/>
<stop offset="1" stop-color="#FF6600"/>
</linearGradient>
<linearGradient id="paint6_linear_1308_2873" x1="112.006" y1="19.3076" x2="112.006" y2="39.7199" gradientUnits="userSpaceOnUse">
<stop stop-color="#FF8800"/>
<stop offset="1" stop-color="#FF6600"/>
</linearGradient>
<linearGradient id="paint7_linear_1308_2873" x1="19.2315" y1="3.88477" x2="19.2315" y2="32.2174" gradientUnits="userSpaceOnUse">
<stop stop-color="#FF8800"/>
<stop offset="1" stop-color="#FF6600"/>
</linearGradient>
</defs>
</svg>
